<svg xmlns="http://www.w3.org/2000/svg" xmlns:xlink="http://www.w3.org/1999/xlink" width="100%" height="100%" fill-rule="evenodd" stroke-linejoin="round" stroke-miterlimit="2" clip-rule="evenodd" version="1.1" viewBox="0 0 35 34" xml:space="preserve"><g><g><path fill-rule="nonzero" d="M5,63L61,7L61,35L33,63L61,91L61,119L5,63Z" transform="matrix(0.7,0,0,0.83,-27.3,-36.52) matrix(0.423729,0,0,0.357143,36.8814,41.5)"/></g><g><path fill-rule="nonzero" d="M41,63L61,43L61,83L41,63Z" transform="matrix(0.7,0,0,0.83,-27.3,-36.52) matrix(0.423729,0,0,0.357143,36.8814,41.5)"/></g><g><path fill-rule="nonzero" d="M123,63L65,7L65,35L93,63L65,91L65,119L123,63Z" transform="matrix(0.7,0,0,0.83,-27.3,-36.52) matrix(0.423729,0,0,0.357143,36.8814,41.5)"/></g></g></svg>