<svg xmlns="http://www.w3.org/2000/svg" xmlns:svg="http://www.w3.org/2000/svg" id="svg4036" width="16" height="16" version="1.1" viewBox="0 0 4.233 4.233"><metadata id="metadata4033"/><g id="layer1" transform="translate(0,-292.76665)"><g id="g4056" transform="translate(-2.4269153,-4.8561732)"><polygon id="polygon282" fill="#2d2d30" points="49 35 50.586 35 53.586 38 54.414 38 58 34.414 58 33.586 55.914 31.5 58 29.414 58 28.586 55 25.586 53.586 27 51.414 27 52.414 26 48.414 22 47.586 22 42 27.586 42 28.414 46 32.414 48.414 30 49 30" transform="matrix(0.26458333,0,0,0.26458333,-8.6855845,291.80199)"/><polygon id="polygon284" fill="#e8ab53" points="43 28 46 31 48 29 50 29 50 34 53 34 52 35 54 37 57 34 55 32 53.998 33.002 51 33 51 29 53 29 52 30 54 32 57 29 55 27 54 28 49 28 51 26 48 23" transform="matrix(0.26458333,0,0,0.26458333,-8.6855845,291.80199)"/></g></g></svg>