<svg xmlns="http://www.w3.org/2000/svg" xmlns:svg="http://www.w3.org/2000/svg" id="svg4726" width="20" height="20" version="1.1" viewBox="0 0 20 20"><metadata id="metadata4742"/><style id="style4728">.icon-canvas-transparent{opacity:0;fill:#252526}.icon-vs-out{fill:#252526}.icon-vs-bg{fill:#c5c5c5}.icon-vs-fg{fill:#2b282e}.icon-vs-action-blue{fill:#75beff}</style><g id="g4744" transform="translate(2,-2)"><path id="canvas" fill="#252526" d="M 16,20 0,20 0,4 16,4 16,20 Z" class="icon-canvas-transparent" opacity="0"/><path id="outline" fill="#252526" d="M 2.879,18 1,16.121 1,7.879 2.879,6 13.121,6 15,7.879 15,16.121 13.121,18 2.879,18 Z" class="icon-vs-out"/><path id="iconFg" fill="#2b282e" d="M 12.293,8 3.707,8 3,8.707 3,15.293 3.707,16 12.293,16 13,15.293 13,8.707 12.293,8 Z M 11,14 l -6,0 0,-1 6,0 0,1 z m 0,-3 -6,0 0,-1 6,0 0,1 z" class="icon-vs-fg"/><g id="iconBg" transform="translate(0,4)"><path id="path4734" fill="#c5c5c5" d="M 12.707,13 3.293,13 2,11.707 2,4.293 3.293,3 12.707,3 14,4.293 14,11.707 12.707,13 Z m -9,-1 8.586,0 L 13,11.293 13,4.707 12.293,4 3.707,4 3,4.707 3,11.293 3.707,12 Z" class="icon-vs-bg"/><path id="path4736" fill="#75beff" d="m 11,7 -6,0 0,-1 6,0 0,1 z m 0,2 -6,0 0,1 6,0 0,-1 z" class="icon-vs-action-blue"/></g></g></svg>