<svg xmlns="http://www.w3.org/2000/svg" xmlns:svg="http://www.w3.org/2000/svg" id="svg4080" width="16" height="16" version="1.1" viewBox="0 0 4.233 4.233"><metadata id="metadata4077"/><g id="layer1" transform="translate(0,-292.76664)"><g id="g4110" transform="translate(-2.7025298,-14.259153)"><polygon id="polygon304" fill="#2d2d30" points="13 32.691 13 27.309 7.791 24 7.209 24 2 27.309 2 32.691 7.209 36 7.791 36" transform="matrix(0.26458333,0,0,0.26458333,2.8348215,301.20496)"/><polygon id="polygon306" fill="#b180d7" points="7.5 25 3 27.857 3 32.143 7.5 35 12 32.143 12 27.857" transform="matrix(0.26458333,0,0,0.26458333,2.8348215,301.20496)"/><polygon id="polygon308" fill="#b180d7" points="7 33.498 4 31.593 4 28.777 7 30.684" transform="matrix(0.26458333,0,0,0.26458333,2.8348215,301.20496)"/><polygon id="polygon310" fill="#b180d7" points="4.642 28 7.5 26.186 10.358 28 7.5 29.814" transform="matrix(0.26458333,0,0,0.26458333,2.8348215,301.20496)"/><polygon id="polygon312" fill="#b180d7" points="11 31.593 8 33.498 8 30.684 11 28.777" transform="matrix(0.26458333,0,0,0.26458333,2.8348215,301.20496)"/><polygon id="polygon314" fill="#2b282e" points="10.358 28 7.5 29.814 4.642 28 7.5 26.186" transform="matrix(0.26458333,0,0,0.26458333,2.8348215,301.20496)"/><polygon id="polygon316" fill="#2b282e" points="4 28.777 7 30.684 7 33.498 4 31.593" transform="matrix(0.26458333,0,0,0.26458333,2.8348215,301.20496)"/><polygon id="polygon318" fill="#2b282e" points="8 33.498 8 30.684 11 28.777 11 31.593" transform="matrix(0.26458333,0,0,0.26458333,2.8348215,301.20496)"/></g></g></svg>