<svg xmlns="http://www.w3.org/2000/svg" xmlns:svg="http://www.w3.org/2000/svg" id="svg4279" width="20" height="20" version="1.1" viewBox="0 0 20 20"><metadata id="metadata4284"/><g id="g8925" transform="translate(-7.372881,3.898305)"><path id="path4400" fill="#f6f6f6" d="m 18.372881,9.1016949 1,0 0,-1 c 0,-0.537 0.741,-1.613 1,-2 -0.259,-0.389 -1,-1.467 -1,-2 l 0,-1 -1,0 0,-2.99999998 1,0 c 1.969,0.021 3,1.27699998 3,2.99999998 l 0,1 1,1 0,2 -1,1 0,1 c 0,1.7090001 -1.031,2.9790001 -3,3.0000001 l -1,0 0,-3.0000001 z m -2,0 -1,0 0,-1 c 0,-0.537 -0.741,-1.613 -1,-2 0.259,-0.389 1,-1.467 1,-2 l 0,-1 1,0 0,-2.99999998 -1,0 c -1.969,0.021 -3,1.27699998 -3,2.99999998 l 0,1 -1,1 0,2 1,1 0,1 c 0,1.7090001 1.317,2.9790001 3.286,3.0000001 l 0.714,0 0,-3.0000001 z"/><path id="path4402" fill="#424242" d="m 20.372881,9.1016949 0,-1 c 0,-0.834 0.496,-1.738 1,-2 -0.504,-0.27 -1,-1.168 -1,-2 l 0,-1 c 0,-0.84 -0.584,-1 -1,-1 l 0,-1 c 2.083,0 2,1.166 2,2 l 0,1 c 0,0.969 0.703,0.98 1,1 l 0,2 c -0.322,0.02 -1,0.053 -1,1 l 0,1 c 0,0.834 0.083,2.0000001 -2,2.0000001 l 0,-1 c 0.833,0 1,-1.0000001 1,-1.0000001 z m -6,0 0,-1 c 0,-0.834 -0.496,-1.738 -1,-2 0.504,-0.27 1,-1.168 1,-2 l 0,-1 c 0,-0.84 0.584,-1 1,-1 l 0,-1 c -2.083,0 -2,1.166 -2,2 l 0,1 c 0,0.969 -0.703,0.98 -1,1 l 0,2 c 0.322,0.02 1,0.053 1,1 l 0,1 c 0,0.834 -0.083,2.0000001 2,2.0000001 l 0,-1 c -0.833,0 -1,-1.0000001 -1,-1.0000001 z"/></g></svg>