<svg xmlns="http://www.w3.org/2000/svg" xmlns:svg="http://www.w3.org/2000/svg" id="svg4168" width="16" height="16" version="1.1" viewBox="0 0 4.233 4.233"><metadata id="metadata4165"/><g id="layer1" transform="translate(0,-292.76667)"><g id="g4186" transform="translate(-297.24048,270.78215)"><polygon id="polygon290" fill="#2d2d30" points="22 32.605 22 27.369 28.739 24 29.263 24 34 26.369 34 31.605 27.209 35 26.789 35" transform="matrix(0.26458333,0,0,0.26458333,291.94881,16.295982)"/><polygon id="polygon292" fill="#75beff" points="23 32 27 34 33 31 33 27 29 25 23 28" transform="matrix(0.26458333,0,0,0.26458333,291.94881,16.295982)"/><polygon id="polygon294" fill="#75beff" points="25 28 29 26 31 27 27 29" transform="matrix(0.26458333,0,0,0.26458333,291.94881,16.295982)"/><polygon id="polygon296" fill="#2b282e" points="31 27 27 29 25 28 29 26" transform="matrix(0.26458333,0,0,0.26458333,291.94881,16.295982)"/></g></g></svg>