<svg xmlns="http://www.w3.org/2000/svg" xmlns:svg="http://www.w3.org/2000/svg" id="svg4068" width="20" height="20" version="1.1" viewBox="0 0 20 20"><metadata id="metadata4073"/><g id="g8301" transform="translate(-8.813559,1.6101692)"><path id="path4422" fill="#f6f6f6" d="m 26.813559,6.9758305 -3,-3 -1.414,1.414 -2.172,0 1,-1 -4,-3.99999999 -0.828,0 -5.586,5.58599999 0,0.828 4,4.0000005 2.414,-2.4140005 0.586,0 0,5.0000005 1.586,0 3,3 0.828,0 3.586,-3.586 0,-0.828 -2.086,-2.0860005 2.086,-2.086 0,-0.828 z"/><polygon id="polygon4424" fill="#c27d1a" points="55 7 54 8 49 8 51 6 48 3 43 8 46 11 48 9 50 9 50 14 53 14 52 15 54 17 57 14 55 12 53.998 13.002 51 13 51 9 53 9 52 10 54 12 57 9" transform="translate(-31.186441,-1.6101695)"/></g></svg>